<svg version="1.1" viewBox="0 0 490.3 490.3" xmlns="http://www.w3.org/2000/svg" xmlns:xlink="http://www.w3.org/1999/xlink" id="Capa_1" overflow="hidden"><style>
.MsftOfcThm_Background1_Fill {
 fill:#FFFFFF; 
}
.MsftOfcThm_Background1_Stroke {
 stroke:#FFFFFF; 
}
</style>
<g><g><path d=" M 0 121.05 L 0 369.25 C 0 403.45 27.9 431.35 62.1 431.35 L 262.7 431.35 C 296.9 431.35 324.8 403.45 324.8 369.25 L 324.8 329.05 C 324.8 322.25 319.3 316.75 312.5 316.75 C 305.7 316.75 300.2 322.25 300.2 329.05 L 300.2 369.25 C 300.2 389.95 283.3 406.85 262.6 406.85 L 62.1 406.85 C 41.4 406.85 24.5 389.95 24.5 369.25 L 24.5 121.05 C 24.5 100.35 41.4 83.45 62.1 83.45 L 262.7 83.45 C 283.4 83.45 300.3 100.35 300.3 121.05 L 300.3 161.25 C 300.3 168.05 305.8 173.55 312.6 173.55 C 319.4 173.55 324.9 168.05 324.9 161.25 L 324.9 121.05 C 324.9 86.85 297 58.95 262.8 58.95 L 62.1 58.95 C 27.9 58.95 0 86.75 0 121.05 Z" stroke="#FFFFFF" stroke-width="1" stroke-linecap="butt" stroke-opacity="1" fill="#FFFFFF" fill-opacity="1"/><path d=" M 385.4 337.65 C 387.8 340.05 390.9 341.25 394.1 341.25 C 397.3 341.25 400.4 340.05 402.8 337.65 L 486.7 253.75 C 491.5 248.95 491.5 241.25 486.7 236.45 L 402.8 152.55 C 398 147.75 390.3 147.75 385.5 152.55 C 380.7 157.35 380.7 165.05 385.5 169.85 L 448.5 232.85 L 218.6 232.85 C 211.8 232.85 206.3 238.35 206.3 245.15 C 206.3 251.95 211.8 257.45 218.6 257.45 L 448.4 257.45 L 385.4 320.45 C 380.6 325.15 380.6 332.95 385.4 337.65 Z" stroke="#FFFFFF" stroke-width="1" stroke-linecap="butt" stroke-opacity="1" fill="#FFFFFF" fill-opacity="1"/></g></g><g></g><g></g><g></g><g></g><g></g><g></g><g></g><g></g><g></g><g></g><g></g><g></g><g></g><g></g><g></g></svg>