<svg version="1.1" viewBox="0 0 512 512" xmlns="http://www.w3.org/2000/svg" xmlns:xlink="http://www.w3.org/1999/xlink" id="Capa_1" overflow="hidden"><style>
.MsftOfcThm_Background1_Fill {
 fill:#FFFFFF; 
}
</style>
<g><g><path d=" M 467.819 431.851 L 431.168 370.795 C 414.272 342.614 405.333 310.358 405.333 277.483 L 405.333 224 C 405.333 141.675 338.325 74.667 256 74.667 C 173.675 74.667 106.667 141.675 106.667 224 L 106.667 277.483 C 106.667 310.358 97.728 342.614 80.832 370.795 L 44.181 431.851 C 42.197 435.136 42.154 439.254 44.032 442.582 C 45.931 445.931 49.493 448.001 53.333 448.001 L 458.666 448.001 C 462.506 448.001 466.069 445.932 467.967 442.582 C 469.845 439.253 469.803 435.136 467.819 431.851 Z M 72.171 426.667 L 99.115 381.76 C 118.016 350.272 128 314.219 128 277.483 L 128 224 C 128 153.408 185.408 96 256 96 C 326.592 96 384 153.408 384 224 L 384 277.483 C 384 314.219 393.984 350.272 412.864 381.76 L 439.829 426.667 L 72.171 426.667 Z" stroke="none" stroke-width="1" stroke-dasharray="" stroke-dashoffset="1" fill="#FFFFFF" fill-opacity="1"/></g></g><g><g><path d=" M 256 0 C 232.469 0 213.333 19.136 213.333 42.667 L 213.333 85.334 C 213.333 91.221 218.112 96 224 96 C 229.888 96 234.667 91.221 234.667 85.333 L 234.667 42.667 C 234.667 30.891 244.224 21.334 256 21.334 C 267.776 21.334 277.333 30.891 277.333 42.667 L 277.333 85.334 C 277.333 91.221 282.112 96 288 96 C 293.888 96 298.667 91.221 298.667 85.333 L 298.667 42.667 C 298.667 19.136 279.531 0 256 0 Z" stroke="none" stroke-width="1" stroke-dasharray="" stroke-dashoffset="1" fill="#FFFFFF" fill-opacity="1"/></g></g><g><g><path d=" M 302.165 431.936 C 299.157 426.859 292.65 425.195 287.552 428.117 C 282.453 431.104 280.747 437.653 283.733 442.73 C 286.506 447.445 288.021 453.098 288.021 458.666 C 288.021 476.309 273.664 490.666 256.021 490.666 C 238.378 490.666 224.021 476.309 224.021 458.666 C 224.021 453.098 225.536 447.445 228.309 442.73 C 231.274 437.631 229.568 431.103 224.49 428.117 C 219.349 425.194 212.863 426.858 209.877 431.936 C 205.162 440 202.666 449.237 202.666 458.667 C 202.667 488.085 226.581 512 256 512 C 285.419 512 309.333 488.085 309.376 458.667 C 309.376 449.237 306.88 440 302.165 431.936 Z" stroke="none" stroke-width="1" stroke-dasharray="" stroke-dashoffset="1" fill="#FFFFFF" fill-opacity="1"/></g></g><g></g><g></g><g></g><g></g><g></g><g></g><g></g><g></g><g></g><g></g><g></g><g></g><g></g><g></g><g></g></svg>